<?xml version="1.0" encoding="UTF-8"?>
<!DOCTYPE svg PUBLIC "-//W3C//DTD SVG 1.1//EN" "http://www.w3.org/Graphics/SVG/1.1/DTD/svg11.dtd">
<svg xmlns="http://www.w3.org/2000/svg" version="1.1" width="512px" height="512px" style="shape-rendering:geometricPrecision; text-rendering:geometricPrecision; image-rendering:optimizeQuality; fill-rule:evenodd; clip-rule:evenodd" xmlns:xlink="http://www.w3.org/1999/xlink">
<g><path style="opacity:1" fill="#1c1c1c" d="M -0.5,-0.5 C 170.167,-0.5 340.833,-0.5 511.5,-0.5C 511.5,170.167 511.5,340.833 511.5,511.5C 340.833,511.5 170.167,511.5 -0.5,511.5C -0.5,340.833 -0.5,170.167 -0.5,-0.5 Z"/></g>
<g><path style="opacity:1" fill="#fefefe" d="M 194.5,127.5 C 246.168,127.333 297.834,127.5 349.5,128C 354.434,130.665 355.601,134.498 353,139.5C 297.167,195.333 241.333,251.167 185.5,307C 182.697,307.755 180.03,307.422 177.5,306C 161.667,290.167 145.833,274.333 130,258.5C 129.333,257.167 128.667,255.833 128,254.5C 127.333,233.5 127.333,212.5 128,191.5C 146.805,171.695 165.971,152.195 185.5,133C 188.564,131.141 191.564,129.308 194.5,127.5 Z"/></g>
<g><path style="opacity:1" fill="#fefefe" d="M 325.5,203.5 C 327.989,203.298 330.323,203.798 332.5,205C 349.362,221.528 365.862,238.362 382,255.5C 382.978,277.589 382.644,299.589 381,321.5C 361.833,340.667 342.667,359.833 323.5,379C 321.725,380.439 319.725,381.439 317.5,382C 264.879,383.649 212.212,383.982 159.5,383C 154.949,379.26 154.449,375.093 158,370.5C 213.728,314.605 269.562,258.938 325.5,203.5 Z"/></g>
</svg>
